<?xml version="1.0" encoding="utf-8"?>
<!-- Generator: Adobe Illustrator 17.0.0, SVG Export Plug-In . SVG Version: 6.00 Build 0)  -->
<!DOCTYPE svg PUBLIC "-//W3C//DTD SVG 1.1//EN" "http://www.w3.org/Graphics/SVG/1.1/DTD/svg11.dtd">
<svg version="1.1" id="隔离模式" xmlns="http://www.w3.org/2000/svg" xmlns:xlink="http://www.w3.org/1999/xlink" x="0px"
	 y="0px" width="744.247px" height="411.783px" viewBox="0 0 744.247 411.783" enable-background="new 0 0 744.247 411.783"
	 xml:space="preserve">
<g id="XMLID_194_">
	<g id="XMLID_238_">
		<linearGradient id="XMLID_2_" gradientUnits="userSpaceOnUse" x1="1.7982" y1="200.3683" x2="745.5409" y2="200.3683">
			<stop  offset="0" style="stop-color:#004098"/>
			<stop  offset="1" style="stop-color:#00ADA9"/>
		</linearGradient>
		<path id="XMLID_246_" fill="url(#XMLID_2_)" d="M584.189,150.148c-10.441,0-20.809,1.05-30.973,3.043
			C518.705,63.697,431.877,0,330.362,0c-99.515,0-184.976,61.191-220.827,147.908c3.832-0.319,7.701-0.515,11.619-0.515
			c9.482,0,18.726,0.97,27.646,2.78c32.912-67.101,101.919-113.42,181.563-113.42c96.459,0,178.623,67.066,198.32,163.166
			c4.028-1.596,26.861-12.535,55.506-13.017c67.989,0,123.304,55.315,123.304,123.304c0,22.143-5.93,43.851-17.15,62.777
			c-5.176,8.73-2.294,20.004,6.435,25.179c2.939,1.745,6.166,2.573,9.354,2.573c6.278,0,12.394-3.219,15.825-9.009
			c14.584-24.598,22.29-52.785,22.29-81.521C744.247,221.949,672.447,150.148,584.189,150.148z"/>
		<linearGradient id="XMLID_3_" gradientUnits="userSpaceOnUse" x1="1.7982" y1="334.1055" x2="745.5409" y2="334.1055">
			<stop  offset="0" style="stop-color:#004098"/>
			<stop  offset="1" style="stop-color:#00ADA9"/>
		</linearGradient>
		<path id="XMLID_244_" fill="url(#XMLID_3_)" d="M374.502,268.386c-9.347,0-15.07,4.58-15.07,13.918v75.236h-0.384l-54.749-81.575
			c-3.433-5.288-9.156-7.578-15.642-7.578c-13.351,0-19.646,4.932-19.646,16.916v100.604c0,9.339,5.723,13.918,15.07,13.918
			c9.348,0,15.07-4.58,15.07-13.918v-73.119h0.379l54.365,79.286c4.008,5.814,7.249,7.752,17.168,7.752
			c13.163,0,18.507-6.518,18.507-17.972v-99.548C389.572,272.966,383.849,268.386,374.502,268.386z"/>
		<linearGradient id="XMLID_4_" gradientUnits="userSpaceOnUse" x1="1.7982" y1="334.4573" x2="745.5409" y2="334.4573">
			<stop  offset="0" style="stop-color:#004098"/>
			<stop  offset="1" style="stop-color:#00ADA9"/>
		</linearGradient>
		<path id="XMLID_243_" fill="url(#XMLID_4_)" d="M520.088,268.386c-9.535,0-15.642,5.814-15.642,14.449v69.417
			c0,17.268-10.49,25.021-28.421,25.021c-17.931,0-28.426-7.753-28.426-25.021v-69.417c0-8.634-6.102-14.449-15.642-14.449
			c-9.539,0-15.642,5.814-15.642,14.449v67.127c0,34.889,23.27,50.567,59.709,50.567c36.434,0,59.709-15.678,59.709-50.567v-67.127
			C535.733,274.2,529.627,268.386,520.088,268.386z"/>
		<linearGradient id="XMLID_5_" gradientUnits="userSpaceOnUse" x1="1.7982" y1="335.2506" x2="745.5409" y2="335.2506">
			<stop  offset="0" style="stop-color:#004098"/>
			<stop  offset="1" style="stop-color:#00ADA9"/>
		</linearGradient>
		<path id="XMLID_240_" fill="url(#XMLID_5_)" d="M657.299,270.676h-90.42c-8.963,0-16.213,4.227-16.213,12.158
			c0,7.93,7.249,12.158,16.213,12.158h29.568v90.383c0,8.634,6.107,14.449,15.642,14.449c9.54,0,15.646-5.814,15.646-14.449v-90.383
			h29.564c8.968,0,16.218-4.228,16.218-12.158C673.517,274.904,666.267,270.676,657.299,270.676z"/>
		<linearGradient id="XMLID_6_" gradientUnits="userSpaceOnUse" x1="1.7982" y1="286.9497" x2="745.5409" y2="286.9497">
			<stop  offset="0" style="stop-color:#004098"/>
			<stop  offset="1" style="stop-color:#00ADA9"/>
		</linearGradient>
		<path id="XMLID_239_" fill="url(#XMLID_6_)" d="M124.834,162.116C55.89,162.116,0,218.006,0,286.95s55.89,124.834,124.834,124.834
			c45.781,0,85.153-25.427,105.679-59.141c8.806-16.807-5.865-35.178-21.55-37.653c-18.077-2.853-26.54,6.578-33.009,17.773h-0.098
			c-19.291,22.202-39.537,32.942-51.023,32.942c-11.421,0-33.628-8.95-52.018-34.483c-7.047-9.783-9.792-30.932-9.792-43.635
			c0-1.081,0.057-2.087,0.14-3.06c-4.14-1.865-13.74-1.339-13.442-10.292c0.805-24.168,31.096-46.242,64.763-49.954l0.049-11.332
			c0.014-2.281,1.892-4.135,4.173-4.121l10.402,0.053c2.281,0.014,4.135,1.892,4.121,4.172l-0.048,11.223
			c28.925,3.172,52.203,22.272,58.221,40.269h0.048c3.615,14.764-13.856,13.506-10.71,18.345c3.88,5.969,15.919,13.492,40.29,10.446
			c23.876-2.985,27.066-23.452,24.146-39.54C230.653,200.949,182.293,162.116,124.834,162.116z"/>
	</g>
</g>
</svg>
